{
  "accessors": [
    {
      "bufferView": 2,
      "componentType": 5126,
      "count": 10364,
      "max": [
        1.0,
        0.9590360522270203,
        0.2802315950393677
      ],
      "min": [
        -1.0,
        -0.959036111831665,
        -0.2802315950393677
      ],
      "type": "VEC3"
    },
    {
      "bufferView": 2,
      "byteOffset": 124368,
      "componentType": 5126,
      "count": 10364,
      "max": [
        0.9999864101409912,
        1.0,
        0.9999985098838806
      ],
      "min": [
        -0.9999864101409912,
        -1.0,
        -0.9999979734420776
      ],
      "type": "VEC3"
    },
    {
      "bufferView": 3,
      "componentType": 5126,
      "count": 10364,
      "max": [
        1.0,
        0.9999763369560242,
        0.9999968409538269,
        1.0
      ],
      "min": [
        -1.0,
        -0.9999864101409912,
        -0.9999969005584717,
        -1.0
      ],
      "type": "VEC4"
    },
    {
      "bufferView": 1,
      "componentType": 5126,
      "count": 10364,
      "max": [
        1.9969638586044312,
        0.995718777179718
      ],
      "min": [
        0.004438002593815327,
        0.004486680030822754
      ],
      "type": "VEC2"
    },
    {
      "bufferView": 1,
      "byteOffset": 82912,
      "componentType": 5126,
      "count": 10364,
      "max": [
        1.9969638586044312,
        0.995718777179718
      ],
      "min": [
        0.004438002593815327,
        0.004486680030822754
      ],
      "type": "VEC2"
    },
    {
      "bufferView": 1,
      "byteOffset": 165824,
      "componentType": 5126,
      "count": 10364,
      "max": [
        1.9969638586044312,
        0.995718777179718
      ],
      "min": [
        0.004438002593815327,
        0.004486680030822754
      ],
      "type": "VEC2"
    },
    {
      "bufferView": 1,
      "byteOffset": 248736,
      "componentType": 5126,
      "count": 10364,
      "max": [
        1.9969638586044312,
        0.995718777179718
      ],
      "min": [
        0.004438002593815327,
        0.004486680030822754
      ],
      "type": "VEC2"
    },
    {
      "bufferView": 1,
      "byteOffset": 331648,
      "componentType": 5126,
      "count": 10364,
      "max": [
        1.9969638586044312,
        0.995718777179718
      ],
      "min": [
        0.004438002593815327,
        0.004486680030822754
      ],
      "type": "VEC2"
    },
    {
      "bufferView": 0,
      "componentType": 5125,
      "count": 52530,
      "type": "SCALAR"
    }
  ],
  "asset": {
    "extras": {
      "author": "DailyArt (https://sketchfab.com/D.art)",
      "license": "CC-BY-NC-4.0 (http://creativecommons.org/licenses/by-nc/4.0/)",
      "source": "https://sketchfab.com/3d-models/volkswagen-steering-wheel-dc70d68a30304549ad432596ca13791b",
      "title": "Volkswagen steering wheel"
    },
    "generator": "Sketchfab-12.66.0",
    "version": "2.0"
  },
  "bufferViews": [
    {
      "buffer": 0,
      "byteLength": 210120,
      "name": "floatBufferViews",
      "target": 34963
    },
    {
      "buffer": 0,
      "byteLength": 414560,
      "byteOffset": 210120,
      "byteStride": 8,
      "name": "floatBufferViews",
      "target": 34962
    },
    {
      "buffer": 0,
      "byteLength": 248736,
      "byteOffset": 624680,
      "byteStride": 12,
      "name": "floatBufferViews",
      "target": 34962
    },
    {
      "buffer": 0,
      "byteLength": 165824,
      "byteOffset": 873416,
      "byteStride": 16,
      "name": "floatBufferViews",
      "target": 34962
    }
  ],
  "buffers": [
    {
      "byteLength": 1039240,
      "uri": "scene.bin"
    }
  ],
  "images": [
    {
      "uri": "textures/07_-_Default_baseColor.png"
    },
    {
      "uri": "textures/07_-_Default_metallicRoughness.png"
    },
    {
      "uri": "textures/07_-_Default_normal.png"
    }
  ],
  "materials": [
    {
      "name": "07_-_Default",
      "normalTexture": {
        "index": 2
      },
      "occlusionTexture": {
        "index": 1
      },
      "pbrMetallicRoughness": {
        "baseColorTexture": {
          "index": 0
        },
        "metallicRoughnessTexture": {
          "index": 1
        }
      }
    }
  ],
  "meshes": [
    {
      "name": "Object_0",
      "primitives": [
        {
          "attributes": {
            "NORMAL": 1,
            "POSITION": 0,
            "TANGENT": 2,
            "TEXCOORD_0": 3,
            "TEXCOORD_1": 4,
            "TEXCOORD_2": 5,
            "TEXCOORD_3": 6,
            "TEXCOORD_4": 7
          },
          "indices": 8,
          "material": 0,
          "mode": 4
        }
      ]
    }
  ],
  "nodes": [
    {
      "children": [
        1
      ],
      "matrix": [
        1.0,
        0.0,
        0.0,
        0.0,
        0.0,
        2.220446049250313e-16,
        -1.0,
        0.0,
        0.0,
        1.0,
        2.220446049250313e-16,
        0.0,
        0.0,
        0.0,
        0.0,
        1.0
      ],
      "name": "Sketchfab_model"
    },
    {
      "children": [
        2
      ],
      "name": "root"
    },
    {
      "children": [
        3
      ],
      "matrix": [
        1.0,
        0.0,
        0.0,
        0.0,
        0.0,
        2.220446049250313e-16,
        1.0,
        0.0,
        0.0,
        -1.0,
        2.220446049250313e-16,
        0.0,
        0.0,
        0.0,
        0.0,
        1.0
      ],
      "name": "GLTF_SceneRootNode"
    },
    {
      "children": [
        4
      ],
      "matrix": [
        28.89881134033203,
        0.0,
        0.0,
        0.0,
        0.0,
        28.89881134033203,
        0.0,
        0.0,
        0.0,
        0.0,
        28.89881134033203,
        0.0,
        0.0,
        25.25101661682129,
        -2.5267410278320313,
        1.0
      ],
      "name": "root_0"
    },
    {
      "children": [
        5
      ],
      "name": "Object014_1"
    },
    {
      "children": [
        6
      ],
      "name": "Object014_2"
    },
    {
      "mesh": 0,
      "name": "Object_6"
    }
  ],
  "samplers": [
    {
      "magFilter": 9729,
      "minFilter": 9987,
      "wrapS": 10497,
      "wrapT": 10497
    }
  ],
  "scene": 0,
  "scenes": [
    {
      "name": "Sketchfab_Scene",
      "nodes": [
        0
      ]
    }
  ],
  "textures": [
    {
      "sampler": 0,
      "source": 0
    },
    {
      "sampler": 0,
      "source": 1
    },
    {
      "sampler": 0,
      "source": 2
    }
  ]
}
